<svg xmlns="http://www.w3.org/2000/svg" xml:space="preserve" width="2048" height="2048" style="shape-rendering:geometricPrecision;text-rendering:geometricPrecision;image-rendering:optimizeQuality;fill-rule:evenodd;clip-rule:evenodd"><defs><style>.fil0{fill:#212121;fill-rule:nonzero}</style></defs><g id="Layer_x0020_1"><g id="_454114768"><path id="_454115008" class="fil0" d="M831.54 736.001c0-17.673-14.328-32-32-32-17.674 0-32.002 14.327-32.002 32v551.998c0 17.673 14.328 32 32.001 32s32.001-14.327 32.001-32V736.001z"/><path id="_454114936" class="fil0" d="M1355.66 695.628c17.465-2.278 29.778-18.286 27.5-35.75-2.279-17.466-18.286-29.779-35.751-27.5L795.41 704.376c-17.465 2.279-29.778 18.286-27.5 35.751 2.279 17.465 18.286 29.778 35.751 27.5l551.998-71.999z"/><path id="_454115128" class="fil0" d="M1383.54 664.002c0-17.673-14.328-32-32-32-17.674 0-32.002 14.327-32.002 32v623.997c0 17.673 14.328 32 32.001 32s32.001-14.327 32.001-32V664.002z"/><path id="_454114504" class="fil0" d="M691.541 1136c38.655 0 73.656 15.672 98.993 41.008 25.336 25.337 41.008 60.338 41.008 98.993 0 38.656-15.673 73.658-41.008 98.993-25.337 25.336-60.338 41.008-98.993 41.008-38.656 0-73.658-15.673-98.993-41.008-25.335-25.335-41.008-60.337-41.008-98.993 0-38.655 15.672-73.656 41.008-98.993 25.335-25.335 60.337-41.008 98.993-41.008zm53.743 86.258c-13.75-13.75-32.754-22.256-53.743-22.256-20.99 0-39.992 8.506-53.743 22.256-13.75 13.75-22.256 32.753-22.256 53.743 0 20.99 8.506 39.992 22.256 53.743 13.75 13.75 32.752 22.256 53.743 22.256 20.99 0 39.992-8.506 53.743-22.257 13.75-13.75 22.256-32.751 22.256-53.742 0-20.99-8.506-39.992-22.256-53.743z"/><path id="_454114888" class="fil0" d="M1243.54 1136c38.656 0 73.658 15.673 98.993 41.008 25.336 25.337 41.008 60.338 41.008 98.993 0 38.656-15.673 73.658-41.008 98.993-25.335 25.335-60.337 41.008-98.993 41.008-38.655 0-73.656-15.672-98.993-41.008-25.335-25.335-41.008-60.337-41.008-98.993 0-38.655 15.672-73.656 41.008-98.993 25.337-25.336 60.338-41.008 98.993-41.008zm53.743 86.258c-13.75-13.75-32.752-22.256-53.743-22.256-20.99 0-39.992 8.506-53.743 22.256-13.75 13.75-22.256 32.753-22.256 53.743 0 20.99 8.506 39.992 22.256 53.743 13.75 13.75 32.754 22.256 53.743 22.256 20.99 0 39.992-8.506 53.743-22.257 13.75-13.75 22.256-32.751 22.256-53.742 0-20.99-8.506-39.992-22.256-53.743z"/><path id="_454114408" class="fil0" d="M1355.66 823.626c17.465-2.278 29.778-18.286 27.5-35.75-2.279-17.466-18.286-29.779-35.751-27.5L795.41 832.374c-17.465 2.279-29.778 18.286-27.5 35.751 2.279 17.465 18.286 29.778 35.751 27.5l551.998-71.999z"/><path id="_454114456" class="fil0" d="M1355.66 943.087c17.465-2.278 29.778-18.286 27.5-35.75-2.279-17.466-18.286-29.779-35.751-27.5L795.41 951.835c-17.465 2.279-29.778 18.286-27.5 35.751 2.279 17.465 18.286 29.778 35.751 27.5l551.998-71.999z"/><path id="_454114744" class="fil0" d="M1024 255.998c212.073 0 404.074 85.963 543.056 224.946 138.983 138.982 224.946 330.983 224.946 543.056 0 212.073-85.963 404.074-224.946 543.056-138.982 138.983-330.983 224.946-543.056 224.946-212.073 0-404.074-85.963-543.056-224.946C341.961 1428.074 255.998 1236.073 255.998 1024c0-212.073 85.963-404.074 224.946-543.056C619.926 341.961 811.927 255.998 1024 255.998zm497.806 270.196C1394.41 398.797 1218.408 319.999 1024 319.999c-194.407 0-370.409 78.797-497.806 206.195C398.797 653.59 319.999 829.592 319.999 1024c0 194.407 78.797 370.409 206.195 497.806C653.59 1649.203 829.592 1728.001 1024 1728.001c194.407 0 370.409-78.797 497.806-206.195 127.397-127.396 206.195-303.398 206.195-497.806 0-194.407-78.797-370.409-206.195-497.806z"/></g></g><path style="fill:none" d="M0 0h2048v2048H0z"/></svg>